HIERARCHY
ROOT Hips
{
  OFFSET -74.5102 94.2646 14.1408
  CHANNELS 6 Xposition Yposition Zposition Zrotation Xrotation Yrotation
  JOINT ToSpine
  {
    OFFSET -2.69724 7.43032 -0.144315
    CHANNELS 3 Zrotation Xrotation Yrotation
    JOINT Spine
    {
      OFFSET -0.0310711 10.7595 1.96963
      CHANNELS 3 Zrotation Xrotation Yrotation
      JOINT Spine1
      {
        OFFSET 13.1342 3.43533 0.764692
        CHANNELS 3 Zrotation Xrotation Yrotation
        JOINT Neck
        {
          OFFSET 29.8703 7.82586 -0.130764
          CHANNELS 3 Zrotation Xrotation Yrotation
          JOINT Head
          {
            OFFSET 9.52751 0.295786 -0.907742
            CHANNELS 3 Zrotation Xrotation Yrotation
            End Site
            {
              OFFSET 16.4037 0.713936 2.7358
            }
          }
        }
        JOINT LeftShoulder
        {
          OFFSET 27.5574 4.95586 2.47156
          CHANNELS 3 Zrotation Xrotation Yrotation
          JOINT LeftArm
          {
            OFFSET 1.20734 -0.998971 20.1238
            CHANNELS 3 Zrotation Xrotation Yrotation
            JOINT LeftForeArm
            {
              OFFSET 26.8049 -0.0536703 -0.155908
              CHANNELS 3 Zrotation Xrotation Yrotation
              JOINT LeftHand
              {
                OFFSET 26.6817 0 0.320147
                CHANNELS 3 Zrotation Xrotation Yrotation
                End Site
                {
                  OFFSET 18.6119 0 0.382219
                }
              }
            }
          }
        }
        JOINT RightShoulder
        {
          OFFSET 27.5927 4.71444 -2.65209
          CHANNELS 3 Zrotation Xrotation Yrotation
          JOINT RightArm
          {
            OFFSET 2.83739 -1.17114 -18.7564
            CHANNELS 3 Zrotation Xrotation Yrotation
            JOINT RightForeArm
            {
              OFFSET 28.839 -0.0548439 1.22491
              CHANNELS 3 Zrotation Xrotation Yrotation
              JOINT RightHand
              {
                OFFSET 26.5114 0 -0.101894
                CHANNELS 3 Zrotation Xrotation Yrotation
                End Site
                {
                  OFFSET 18.2168 0 0
                }
              }
            }
          }
        }
      }
    }
  }
  JOINT LeftUpLeg
  {
    OFFSET -4.76168 -1.9167 -10.2353
    CHANNELS 3 Zrotation Xrotation Yrotation
    JOINT LeftLeg
    {
      OFFSET 2.55951 -42.0585 -8.02213
      CHANNELS 3 Zrotation Xrotation Yrotation
      JOINT LeftFoot
      {
        OFFSET 3.16357 -42.5282 -3.95426
        CHANNELS 3 Zrotation Xrotation Yrotation
        JOINT LeftToeBase
        {
          OFFSET 0.346054 -6.02161 12.8035
          CHANNELS 3 Zrotation Xrotation Yrotation
          End Site
          {
            OFFSET 0.134235 -1.35082 5.13018
          }
        }
      }
    }
  }
  JOINT RightUpLeg
  {
    OFFSET -4.94151 -1.41743 10.6446
    CHANNELS 3 Zrotation Xrotation Yrotation
    JOINT RightLeg
    {
      OFFSET -2.56294 -42.0364 -7.94377
      CHANNELS 3 Zrotation Xrotation Yrotation
      JOINT RightFoot
      {
        OFFSET -3.0952 -42.555 -4.02241
        CHANNELS 3 Zrotation Xrotation Yrotation
        JOINT RightToeBase
        {
          OFFSET -0.0828122 -6.13587 12.8035
          CHANNELS 3 Zrotation Xrotation Yrotation
          End Site
          {
            OFFSET -0.131328 -1.35082 5.13018
          }
        }
      }
    }
  }
}
MOTION
Frames:	10
Frame Time:	0.00833333
-80.3312 62.4011 1.8974 18.7559 -59.158 -70.1165 -70.1915 0 88.8779 162.033 47.2983 -69.2306 -6.82331 25.9659 -0.221114 -160.734 32.5663 170.653 -155.432 72.8228 -155.685 -0.479005 -18.4641 -28.6202 -65.1875 49.5851 -72.7294 7.87067 11.55 -34.3262 0.420956 0.000578151 0.358659 -2.35443 11.5859 33.979 -71.8924 -10.5258 114.153 5.61714 -9.79999 30.286 0.58676 0.000330589 0.0646656 -19.8086 10.1209 84.4024 -165.928 57.9211 141.758 -4.36796 -7.2518 -0.373883 27.3348 -39.4256 25.6413 21.6202 -3.40224 77.5858 167.624 71.2393 -176.695 -10.2297 -29.5386 1.12738 3.27062 -1.11341 -20.6461 
-80.2668 61.9093 1.74704 18.4694 -59.3673 -70.2801 -70.1915 0 88.8779 162.307 47.2013 -69.3938 -6.75854 26.0718 -0.262107 -160.836 32.5979 170.706 -155.77 72.865 -155.434 -0.492173 -18.4875 -28.7344 -65.2011 49.6431 -72.7116 7.97863 11.6853 -34.3833 0.420956 0.000578154 0.358659 -2.36673 11.6169 34.0293 -71.6704 -10.2406 114.059 5.60852 -9.78531 30.2852 0.58676 0.000330585 0.0646656 -19.8807 10.1496 84.202 -166.098 57.2736 141.871 -4.28288 -7.88692 -0.454971 28.1973 -39.9055 26.805 22.0631 -3.61955 77.3488 167.934 70.5648 -176.767 -10.2513 -29.6609 1.12365 3.25864 -0.911396 -20.5027 
-80.2062 61.4255 1.59254 18.2018 -59.6024 -70.4506 -70.1915 0 88.8779 162.56 47.0547 -69.6068 -6.72793 26.1767 -0.291213 -160.912 32.6062 170.752 -156.106 72.8836 -155.176 -0.504937 -18.5087 -28.8472 -65.1459 49.7139 -72.7461 8.06488 11.7886 -34.4389 0.420956 0.000578157 0.358659 -2.3802 11.6443 34.0966 -71.4302 -9.93472 114.004 5.60379 -9.79499 30.2398 0.58676 0.000330579 0.0646656 -19.9881 10.2003 84.0013 -166.243 56.6453 141.879 -4.20566 -8.46923 -0.528727 28.9791 -40.3953 27.6248 22.4715 -3.78878 77.1352 168.208 69.9165 -176.872 -10.2032 -29.7961 1.12955 3.25328 -0.651363 -20.3798 
-80.1692 60.9604 1.44405 17.9315 -59.8769 -70.6521 -70.1915 0 88.8779 162.791 46.8368 -69.893 -6.74958 26.2841 -0.304304 -160.963 32.5724 170.793 -156.437 72.8599 -154.922 -0.507519 -18.5007 -28.9001 -64.9869 49.8069 -72.8636 8.11645 11.84 -34.4951 0.420956 0.00057816 0.358659 -2.39406 11.6682 34.1741 -71.1634 -9.58487 114.011 5.59633 -9.82954 30.1197 0.58676 0.000330573 0.0646656 -20.1518 10.2973 83.8047 -166.37 56.0479 141.771 -4.13706 -9.00396 -0.595289 29.626 -40.9301 27.9297 22.8356 -3.8795 76.9381 168.435 69.3003 -177.035 -10.0265 -29.9727 1.1532 3.25815 -0.260547 -20.2717 
-80.1667 60.5205 1.30587 17.6318 -60.1761 -70.8929 -70.1915 0 88.8779 163.014 46.5797 -70.2264 -6.80092 26.395 -0.305643 -161.003 32.5115 170.835 -156.791 72.8094 -154.652 -0.492631 -18.4412 -28.8553 -64.7514 49.915 -73.0412 8.14894 11.8636 -34.55 0.420956 0.000578164 0.358659 -2.4101 11.6874 34.2806 -70.8668 -9.18807 114.061 5.58917 -9.88744 29.9432 0.58676 0.000330567 0.0646656 -20.3518 10.4262 83.6008 -166.492 55.4639 141.569 -4.08534 -9.52413 -0.658028 30.1664 -41.4742 27.9297 23.176 -3.90376 76.7415 168.622 68.7137 -177.238 -9.76529 -30.1723 1.18878 3.26635 0.22763 -20.1564 
-80.1863 60.0988 1.17206 17.3674 -60.4805 -71.1161 -70.1915 0 88.8779 163.219 46.3067 -70.5682 -6.85837 26.5006 -0.301192 -161.02 32.4547 170.87 -157.153 72.7622 -154.365 -0.467298 -18.3495 -28.7515 -64.496 50.0216 -73.2289 8.17944 11.8864 -34.5998 0.420956 0.000578169 0.358659 -2.4281 11.702 34.4128 -70.5635 -8.79628 114.111 5.59438 -9.96884 29.7644 0.58676 0.00033056 0.0646656 -20.5548 10.544 83.3868 -166.606 54.8807 141.299 -4.0411 -9.99321 -0.713916 30.6548 -42.0091 27.8275 23.5015 -3.9109 76.5679 168.781 68.1445 -177.431 -9.51879 -30.3447 1.22253 3.27462 0.674601 -20.0646 
-80.2128 59.6862 1.03738 17.2066 -60.771 -71.2613 -70.1915 0 88.8779 163.396 46.0417 -70.8816 -6.89833 26.5921 -0.296939 -161.002 32.4329 170.893 -157.511 72.7485 -154.056 -0.442821 -18.2614 -28.6448 -64.2782 50.1108 -73.3755 8.22515 11.9353 -34.6411 0.420956 0.000578176 0.358659 -2.44421 11.7149 34.5307 -70.2752 -8.46285 114.122 5.62426 -10.0739 29.6376 0.58676 0.000330553 0.0646656 -20.7277 10.6064 83.1599 -166.709 54.2856 140.984 -3.99468 -10.3747 -0.759871 31.1557 -42.5136 27.8323 23.8204 -3.95325 76.44 168.927 67.5808 -177.567 -9.3865 -30.4399 1.2405 3.28142 0.941162 -20.0254 
-80.2309 59.2737 0.896573 17.1881 -61.0496 -71.3068 -70.1915 0 88.8779 163.535 45.7889 -71.1696 -6.91779 26.6656 -0.286982 -160.925 32.4631 170.903 -157.909 72.7847 -153.665 -0.429885 -18.2128 -28.5909 -64.1208 50.175 -73.4548 8.28982 12.0183 -34.6684 0.420956 0.000578185 0.358659 -2.45452 11.7287 34.5945 -69.992 -8.21453 114.088 5.67711 -10.1926 29.5794 0.58676 0.000330546 0.0646656 -20.8777 10.5898 82.9294 -166.799 53.6787 140.592 -3.94669 -10.6338 -0.791783 31.7189 -42.9971 28.0324 24.1268 -4.03987 76.383 169.06 67.0201 -177.612 -9.42528 -30.415 1.23473 3.29215 0.921505 -20.0939 
-80.2373 58.861 0.748001 17.2722 -61.3243 -71.2828 -70.1915 0 88.8779 163.645 45.5365 -71.4482 -6.92828 26.7264 -0.270611 -160.802 32.5258 170.905 -158.342 72.8516 -153.211 -0.434935 -18.2271 -28.6232 -63.9912 50.2242 -73.4976 8.36453 12.1207 -34.6852 0.420956 0.000578196 0.358659 -2.45624 11.7463 34.5747 -69.7071 -8.01879 114.032 5.74822 -10.3282 29.5602 0.58676 0.000330539 0.0646656 -21.018 10.5203 82.6957 -166.884 53.0649 140.128 -3.90055 -10.7985 -0.812251 32.3027 -43.4646 28.3076 24.419 -4.14488 76.3792 169.181 66.4688 -177.605 -9.57203 -30.3066 1.21402 3.30579 0.712719 -20.2382 
-80.24 58.4522 0.594543 17.4114 -61.5858 -71.2041 -70.1915 0 88.8779 163.744 45.285 -71.7011 -6.92793 26.7792 -0.261643 -160.679 32.5978 170.893 -158.72 72.9257 -152.806 -0.45104 -18.2804 -28.7057 -63.8641 50.2685 -73.5377 8.44762 12.2358 -34.7011 0.420956 0.000578209 0.358659 -2.45194 11.7656 34.4989 -69.446 -7.84113 113.958 5.84556 -10.5007 29.5655 0.58676 0.000330532 0.0646656 -21.1246 10.4273 82.4424 -166.973 52.4396 139.672 -3.85098 -10.9259 -0.828268 32.8377 -43.8884 28.556 24.7113 -4.26994 76.3867 169.302 65.9279 -177.607 -9.74645 -30.1835 1.18953 3.31271 0.479419 -20.3564 
